<svg id="bb45bc54-77cf-4112-a212-8966a5ccff9e" data-name="Vrstva 1" xmlns="http://www.w3.org/2000/svg" viewBox="0 0 190 56">
  <defs>
    <style>
      .a9b82f80-ea0b-4491-86a6-49648314b018 {
        fill: #ce1126;
      }

      .a4ca17c1-813a-4015-9f0b-6a5a789b1de3 {
        fill: #fff;
      }
    </style>
  </defs>
  <g>
    <rect class="a9b82f80-ea0b-4491-86a6-49648314b018" width="56" height="56"/>
    <polygon points="70.817 10.793 93.026 10.793 93.026 16.141 76.944 16.141 76.944 25.567 92.103 25.567 92.103 30.717 76.944 30.717 76.944 45.199 70.817 45.199 70.817 10.793"/>
    <path d="M109.24437,25.61412a17.55267,17.55267,0,0,0,2.62719-.19461,7.51177,7.51177,0,0,0,2.35473-.72782,4.58114,4.58114,0,0,0,1.72422-1.52961,4.42154,4.42154,0,0,0,.68112-2.55324,3.93506,3.93506,0,0,0-.63052-2.308,4.76394,4.76394,0,0,0-1.60356-1.42451,6.75261,6.75261,0,0,0-2.21073-.72783,15.68106,15.68106,0,0,0-2.40533-.19461H104.243v9.66027ZM98.11676,10.79288h11.95662a21.43811,21.43811,0,0,1,4.71337.51376,12.15163,12.15163,0,0,1,4.05562,1.67751,8.73014,8.73014,0,0,1,2.84125,3.06311,9.26332,9.26332,0,0,1,1.07034,4.61607,8.78454,8.78454,0,0,1-2.11343,6.099,10.62193,10.62193,0,0,1-5.75646,3.176l9.18153,15.26105h-7.395l-7.9594-14.57993H104.243V45.19933H98.11676Z"/>
    <polygon points="128.709 10.793 151.501 10.793 151.501 16.141 134.831 16.141 134.831 24.886 150.626 24.886 150.626 30.036 134.831 30.036 134.831 39.754 152.373 39.754 152.373 45.199 128.709 45.199 128.709 10.793"/>
    <path d="M168.67722,39.83987a20.94007,20.94007,0,0,0,4.76008-.55658,12.43152,12.43152,0,0,0,4.30081-1.89547,10.07682,10.07682,0,0,0,3.13316-3.61968,12.24962,12.24962,0,0,0,1.21434-5.78371,13.03794,13.03794,0,0,0-1.21434-6.025,9.75757,9.75757,0,0,0-3.13316-3.64693,11.69977,11.69977,0,0,0-4.30081-1.79427,23.55067,23.55067,0,0,0-4.76008-.48652h-5.10258V39.83987Zm-11.22491-29.047h12.19406a26.98422,26.98422,0,0,1,6.75285.87573,17.51456,17.51456,0,0,1,6.12621,2.89186,15.17929,15.17929,0,0,1,4.42146,5.29719,17.55284,17.55284,0,0,1,1.70086,8.13845,16.649,16.649,0,0,1-1.70086,7.78426,15.95769,15.95769,0,0,1-4.42146,5.34779,18.42535,18.42535,0,0,1-6.12621,3.08257,23.87829,23.87829,0,0,1-6.75285,1.00028H157.45231Z"/>
    <rect class="a4ca17c1-813a-4015-9f0b-6a5a789b1de3" x="10.82791" y="37.78871" width="7.41062" height="7.41062"/>
    <rect class="a4ca17c1-813a-4015-9f0b-6a5a789b1de3" x="10.82791" y="24.29469" width="7.41062" height="7.41062"/>
    <rect class="a4ca17c1-813a-4015-9f0b-6a5a789b1de3" x="24.29469" y="24.29469" width="7.41062" height="7.41062"/>
    <rect class="a4ca17c1-813a-4015-9f0b-6a5a789b1de3" x="10.82791" y="10.79288" width="7.41062" height="7.41062"/>
    <rect class="a4ca17c1-813a-4015-9f0b-6a5a789b1de3" x="24.29469" y="10.79288" width="7.41062" height="7.41062"/>
    <rect class="a4ca17c1-813a-4015-9f0b-6a5a789b1de3" x="37.76147" y="10.79288" width="7.41062" height="7.41062"/>
  </g>
</svg>
